<svg height="512" viewBox="0 0 64 64" width="512" xmlns="http://www.w3.org/2000/svg"><g id="Filled_outline" data-name="Filled outline"><path d="m3 49h4v8h-4z" fill="#e97424"/><path d="m7 47h4v12h-4z" fill="#50b4f8"/><path d="m11 49h8v8h-8z" fill="#2d75bb"/><path d="m57 49h4v8h-4z" fill="#e97424" transform="matrix(-1 0 0 -1 118 106)"/><path d="m53 47h4v12h-4z" fill="#50b4f8" transform="matrix(-1 0 0 -1 110 106)"/><path d="m45 49h8v8h-8z" fill="#2d75bb" transform="matrix(-1 0 0 -1 98 106)"/><path d="m51 24a19 19 0 1 0 -22 18.741v4.259h6v-4.259a18.989 18.989 0 0 0 16-18.741z" fill="#dd3e46"/><path d="m37 50v-3h-10v3h-8v6h8v3h10v-3h8v-6z" fill="#50b4f8"/><circle cx="32" cy="24" fill="#f4f4e6" r="15"/><circle cx="32" cy="24" fill="#e97424" r="2"/><g fill="#f4f4e6"><path d="m14 52h2v2h-2z"/><path d="m29 52h2v2h-2z"/><path d="m33 52h2v2h-2z"/><path d="m48 52h2v2h-2z"/></g><path d="m61 48h-3v-1a1 1 0 0 0 -1-1h-4a1 1 0 0 0 -1 1v1h-7a1 1 0 0 0 -1 1h-6v-2a1 1 0 0 0 -1-1h-1v-2.424a20 20 0 1 0 -8 0v2.424h-1a1 1 0 0 0 -1 1v2h-6a1 1 0 0 0 -1-1h-7v-1a1 1 0 0 0 -1-1h-4a1 1 0 0 0 -1 1v1h-3a1 1 0 0 0 -1 1v8a1 1 0 0 0 1 1h3v1a1 1 0 0 0 1 1h4a1 1 0 0 0 1-1v-1h7a1 1 0 0 0 1-1h6v2a1 1 0 0 0 1 1h10a1 1 0 0 0 1-1v-2h6a1 1 0 0 0 1 1h7v1a1 1 0 0 0 1 1h4a1 1 0 0 0 1-1v-1h3a1 1 0 0 0 1-1v-8a1 1 0 0 0 -1-1zm-55 8h-2v-6h2zm4 2h-2v-10h2zm8-2h-6v-6h6zm-4-32a18 18 0 1 1 20.843 17.753 1 1 0 0 0 -.843.987v3.26h-4v-3.26a1 1 0 0 0 -.843-.987 17.9 17.9 0 0 1 -15.157-17.753zm30 31h-7a1 1 0 0 0 -1 1v2h-8v-2a1 1 0 0 0 -1-1h-7v-4h7a1 1 0 0 0 1-1v-2h8v2a1 1 0 0 0 1 1h7zm8 1h-6v-6h6zm4 2h-2v-10h2zm4-2h-2v-6h2z"/><path d="m48 24a16 16 0 1 0 -16 16 16.019 16.019 0 0 0 16-16zm-24.707 7.293-1.861 1.861a14.059 14.059 0 0 1 -1.609-2.271l2.777-2.083-1.2-1.6-2.448 1.836a13.864 13.864 0 0 1 -.9-4.036h2.948v-2h-2.949a13.825 13.825 0 0 1 .706-3.5l2.8 1.4.894-1.79-2.909-1.454a14.067 14.067 0 0 1 1.894-2.8l1.861 1.861 1.414-1.414-1.861-1.861a13.942 13.942 0 0 1 2.435-1.708l1.887 2.831 1.664-1.11-1.7-2.553a13.827 13.827 0 0 1 3.864-.851v2.949h2v-2.949a13.827 13.827 0 0 1 3.87.841l-1.7 2.553 1.664 1.11 1.887-2.831a13.942 13.942 0 0 1 2.435 1.708l-1.861 1.861 1.414 1.414 1.861-1.861a14.067 14.067 0 0 1 1.894 2.805l-2.909 1.454.894 1.79 2.8-1.4a13.825 13.825 0 0 1 .706 3.5h-2.955v2h2.949a13.9 13.9 0 0 1 -1.132 4.613l-3.217-2.408-1.2 1.6 3.464 2.6a14.109 14.109 0 0 1 -1.772 2.28l-2.385-2.385-1.414 1.414 2.313 2.313a13.921 13.921 0 0 1 -17.76-.452l1.861-1.861z"/><path d="m14 52h2v2h-2z"/><path d="m29 52h2v2h-2z"/><path d="m33 52h2v2h-2z"/><path d="m48 52h2v2h-2z"/><path d="m29 31h2v2h-2z"/><path d="m33 31h2v2h-2z"/><path d="m26 31a1 1 0 0 0 .707-.293l4-4 .006-.009a2.957 2.957 0 0 0 1.287.302 3 3 0 0 0 3-3 2.957 2.957 0 0 0 -.3-1.287l.009-.006 4-4a1 1 0 0 0 -1.414-1.414l-4 4-.006.009a2.957 2.957 0 0 0 -1.289-.302 3 3 0 0 0 -3 3 2.957 2.957 0 0 0 .3 1.287l-.009.006-4 4a1 1 0 0 0 .709 1.707zm6-8a1 1 0 1 1 -1 1 1 1 0 0 1 1-1z"/></g></svg>